<?xml version="1.0" encoding="UTF-8" standalone="no"?><svg xmlns="http://www.w3.org/2000/svg" fill="#767676" viewBox="0 0 32 32"><path d="M8.42 17.6l.38.92-4.62 1.92-.38-.93zM3.8 10.49l4.62 1.91.38-.92-4.62-1.92zm9.6-3.07L11.49 2.8l-.93.38 1.92 4.62zm8.04-4.24l-.93-.38-1.91 4.62.92.38zm6.76 7.3l-.38-.92-4.62 1.92.38.92zM13 25h6v-1h-6zm3 4a1 1 0 0 1-1-1h-1a2 2 0 0 0 4 0h-1a1 1 0 0 1-1 1zm0-21a6.92 6.92 0 0 0-3.86 12.71c.73.48.86 1.14.86 2.29h1a3.28 3.28 0 0 0-1.31-3.12A5.9 5.9 0 0 1 10 14.92a6 6 0 0 1 12 0 5.9 5.9 0 0 1-2.69 4.96A3.28 3.28 0 0 0 18 23h1c0-1.15.13-1.81.86-2.29A6.92 6.92 0 0 0 16 8zm.5 15v-4.8l1.85-1.85-.7-.7L16 17.29l-1.65-1.64-.7.7 1.85 1.86V23zm6.7-4.48l4.62 1.92.38-.93-4.62-1.91zM13 27h6v-1h-6z" /></svg>