<?xml version="1.0" encoding="UTF-8" standalone="no"?><svg xmlns="http://www.w3.org/2000/svg" fill="#767676" viewBox="0 0 32 32"><path d="M16 30l-.52-.46a37.25 37.25 0 0 1-4.53-4.76C8.69 21.93 6 17.57 6 12.94a10 10 0 0 1 20 0c0 4.63-2.69 9-4.94 11.84a37.4 37.4 0 0 1-4.53 4.76zm0-26a8.98 8.98 0 0 0-9 8.94c0 4.34 2.57 8.5 4.73 11.21A36.36 36.36 0 0 0 16 28.67a36.42 36.42 0 0 0 4.27-4.51c2.16-2.72 4.74-6.88 4.74-11.22A8.98 8.98 0 0 0 16 4zm0 20a3 3 0 1 1 3-3 3 3 0 0 1-3 3zm0-5a2 2 0 1 0 2 2 2 2 0 0 0-2-2zm1.17-3h-2.34a1 1 0 0 1-.99-.85l-.83-6A1 1 0 0 1 14 8h4a1 1 0 0 1 .99 1.15l-.83 5.98a1 1 0 0 1-1 .87zm0-1L18 9h-4l.83 6z" /></svg>