<?xml version="1.0" encoding="UTF-8" standalone="no"?><svg xmlns="http://www.w3.org/2000/svg" fill="#767676" viewBox="0 0 32 32"><path d="M14.5 13a6.5 6.5 0 1 0 0-5 6.5 6.5 0 1 0 0 5zm6-8a5.5 5.5 0 1 1-5.5 5.5A5.5 5.5 0 0 1 20.5 5zM3 10.5A5.5 5.5 0 1 1 8.5 16 5.5 5.5 0 0 1 3 10.5zM8.5 13A2.5 2.5 0 0 1 6 10.5h1A1.5 1.5 0 1 0 8.5 9V8a2.5 2.5 0 0 1 0 5zm9.5-2.5h1A1.5 1.5 0 1 0 20.5 9V8a2.5 2.5 0 1 1-2.5 2.5zM8 19h4v1H8zm5 0h1v1h-1zm14-3v.72L23.36 19H23v-1h-1v7.5a.5.5 0 0 1-.5.5h-15a.5.5 0 0 1-.5-.5V18H5v7.5A1.5 1.5 0 0 0 6.5 27h15a1.5 1.5 0 0 0 1.5-1.5V24h.36L27 26.28V27h3V16zm-3.36 7H23v-3h.64L27 17.9v7.2zM29 26h-1v-9h1z" /></svg>