<?xml version="1.0" encoding="UTF-8" standalone="no"?><svg xmlns="http://www.w3.org/2000/svg" fill="#767676" viewBox="0 0 32 32"><path d="M24 14.23V28.5a1.5 1.5 0 0 1-1.5 1.5h-13A1.5 1.5 0 0 1 8 28.5V14.23a1.5 1.5 0 0 1 .48-1.1l6.5-5.74a1.5 1.5 0 0 1 2.04 0l2.2 1.95a4 4 0 1 0-6.8-.57l-.9.45A4.94 4.94 0 0 1 11 7a5 5 0 1 1 6 4.9V13h-1v-3h1v.86a3.96 3.96 0 0 0 1.53-.8l-2.18-1.92a.5.5 0 0 0-.7 0l-6.5 5.73a.5.5 0 0 0-.15.36V28.5a.5.5 0 0 0 .5.5h13a.5.5 0 0 0 .5-.5V14.23a.5.5 0 0 0-.16-.37l-2.67-2.35.66-.75 2.68 2.37a1.52 1.52 0 0 1 .49 1.1zm-5.08 3.53l-.84-.53-5 8 .84.53zM13.5 21h-1a1.5 1.5 0 0 1-1.5-1.5v-1a1.5 1.5 0 0 1 1.5-1.5h1a1.5 1.5 0 0 1 1.5 1.5v1a1.5 1.5 0 0 1-1.5 1.5zm.5-2.5a.5.5 0 0 0-.5-.5h-1a.5.5 0 0 0-.5.5v1a.5.5 0 0 0 .5.5h1a.5.5 0 0 0 .5-.5zm3 6v-1a1.5 1.5 0 0 1 1.5-1.5h1a1.5 1.5 0 0 1 1.5 1.5v1a1.5 1.5 0 0 1-1.5 1.5h-1a1.5 1.5 0 0 1-1.5-1.5zm1 0a.5.5 0 0 0 .5.5h1a.5.5 0 0 0 .5-.5v-1a.5.5 0 0 0-.5-.5h-1a.5.5 0 0 0-.5.5z" /></svg>