<?xml version="1.0" encoding="UTF-8" standalone="no"?><svg xmlns="http://www.w3.org/2000/svg" fill="#767676" viewBox="0 0 32 32"><path d="M23 11H9V6h14zm-13-1h12V7H10zm3 11H9v-4h4zm-3-1h2v-2h-2zm3 6H9v-4h4zm-3-1h2v-2h-2zm8-4h-4v-4h4zm-3-1h2v-2h-2zm3 6h-4v-4h4zm-3-1h2v-2h-2zm8-4h-4v-4h4zm-3-1h2v-2h-2zm-7-4H9v-4h4zm-3-1h2v-2h-2zm8 1h-4v-4h4zm-3-1h2v-2h-2zm8 1h-4v-4h4zm-3-1h2v-2h-2zm3 11h-4v-4h4zm-3-1h2v-2h-2zm4.5 5h-17A2.5 2.5 0 0 1 5 27.5v-23A2.5 2.5 0 0 1 7.5 2h17A2.5 2.5 0 0 1 27 4.5v23a2.5 2.5 0 0 1-2.5 2.5zM7.5 3A1.5 1.5 0 0 0 6 4.5v23A1.5 1.5 0 0 0 7.5 29h17a1.5 1.5 0 0 0 1.5-1.5v-23A1.5 1.5 0 0 0 24.5 3zM13 4H9v1h4zm2 0h-1v1h1z" /></svg>