<?xml version="1.0" encoding="UTF-8" standalone="no"?><svg xmlns="http://www.w3.org/2000/svg" viewBox="0 0 32 32" x="0px" y="0px">
<style>.st0 { fill: rgb(217, 223, 228) }.st1 { fill: rgb(176, 184, 188) }.st2 { fill: rgb(255, 123, 51) }</style><path class="st0" d="M14.7,24c-3.1,0.1-6.3-0.3-9.3-1l-0.2-0.1c-0.4-0.1-0.8-0.4-1-0.8C4,21.9,3.9,21.6,4,21.4  c0.3-0.8,1.3-5.4,1.9-8.1c2.7-0.8,5.5-1.3,8.3-1.3c3.2,0,6.3,0.4,9.3,1.2c0.1,0.7,0.2,1,0.4,1.9c-0.5,0-1.1-0.2-1.5,0l-3.9,2.3  C17.6,18,17,19,17,20.2l0.1,3.7C16.4,23.9,15.6,24,14.7,24z" />
<path class="st1" d="M3.4,10.4c3.1-1.7,6.7-2.6,10.3-2.6c3.6,0,7.2,0.9,10.3,2.6l0.6-1C21.9,7.9,19,7,16,6.8l0.2-0.8  c1.1-0.1,1.9-1.1,1.8-2.2s-1.1-1.9-2.2-1.8C14.7,2,13.9,3,14,4.1c0.1,0.6,0.4,1.2,1,1.5l-0.2,1c-0.4,0-0.7,0-1.1,0h-1.1l-0.2-1  c1-0.6,1.3-1.8,0.7-2.7s-1.8-1.3-2.7-0.7C9.3,2.8,9,4,9.6,4.9c0.3,0.6,0.9,0.9,1.6,1l0.2,0.8C8.4,7,5.5,7.9,2.8,9.4L3.4,10.4z   M16,3.2c0.4,0,0.8,0.3,0.8,0.8c0,0.4-0.3,0.8-0.8,0.8S15.2,4.4,15.2,4c0,0,0,0,0,0C15.2,3.5,15.6,3.2,16,3.2z M11.3,4.8  c-0.4,0-0.8-0.3-0.8-0.8s0.3-0.8,0.8-0.8c0.4,0,0.8,0.3,0.8,0.8c0,0,0,0,0,0C12.1,4.4,11.8,4.8,11.3,4.8C11.3,4.8,11.3,4.8,11.3,4.8  z" />
<path class="st2" d="M23.8,20.5L23,22.2c0,0,0,0.1,0,0.1c0,0,0-0.1,0-0.1l-0.8-1.7c-0.2-0.6-0.7-0.9-1.3-0.9h-1.4v4.8h1v-3.8h0.2  c0.2,0,0.4,0.1,0.4,0.3l0.9,1.9l0.1,0.1c0.2,0.5,0.4,0.8,0.8,0.8s0.5-0.3,0.7-0.8l0.1-0.2l0.9-1.9c0.1-0.3,0.3-0.3,0.5-0.3h0.2v3.8  h1v-4.8h-1.3C24.5,19.5,24,19.9,23.8,20.5z" />
<path class="st1" d="M13.7,23.3c-3.1,0.1-6.1-0.3-9.1-1l-0.2-0.1c-0.4-0.1-0.7-0.4-0.9-0.8c-0.2-0.2-0.2-0.5-0.2-0.8  c0.2-0.8,1.3-5.9,1.9-8.6c2.7-1.2,5.6-1.8,8.5-1.8c2.9,0,5.9,0.6,8.5,1.8c0.1,0.5,0.2,1,0.3,1.5h1.2c-0.2-0.8-0.3-1.5-0.5-2.1  l-0.1-0.3L23,11.2c-2.9-1.4-6.1-2.1-9.3-2.1c-3.2,0-6.4,0.7-9.3,2.1l-0.2,0.1l-0.1,0.3c-0.6,2.9-1.8,8-2,8.8c-0.1,0.6,0,1.2,0.3,1.7  c0.4,0.6,0.9,1.1,1.6,1.3h0.1c3.1,0.8,6.3,1.2,9.6,1.1c0.4,0,0.8,0,1.2,0v-1.2L13.7,23.3z" />
<path class="st2" d="M28.4,17.4l-3.9-2.2c-0.2-0.1-0.4-0.2-0.6-0.3c-0.4-0.1-0.8-0.2-1.2-0.1c-0.5,0-0.9,0.2-1.3,0.4l-3.9,2.2  C16.6,18,16,19,16,20.1v4.5c0,1.1,0.6,2.2,1.6,2.7l3.9,2.2c1,0.6,2.2,0.6,3.1,0l3.9-2.2c1-0.6,1.6-1.6,1.6-2.7v-4.5  C30,19,29.4,18,28.4,17.4z M27.8,26.3L24,28.5c-0.6,0.3-1.3,0.3-1.9,0l-3.9-2.2c-0.6-0.4-1-1-1-1.7v-4.5c0-0.7,0.4-1.4,1-1.7  l3.9-2.2c0.3-0.2,0.6-0.3,1-0.3c0.4,0,0.7,0.1,1,0.3l3.8,2.2c0.6,0.4,1,1,1,1.7v4.5C28.9,25.3,28.5,26,27.8,26.3z" />
</svg>