<?xml version="1.0" encoding="UTF-8" standalone="no"?><svg xmlns="http://www.w3.org/2000/svg" fill="#767676" viewBox="0 0 32 32"><path d="M29.5 7H29V5H18.48a3 3 0 0 0-2.5 1.34A3 3 0 0 0 13.48 5H3v2h-.48a1.5 1.5 0 0 0-1.5 1.5v16a1.5 1.5 0 0 0 1.5 1.5h8.92a.5.5 0 0 1 .43.25l.58 1a1.5 1.5 0 0 0 1.3.75h4.45a1.5 1.5 0 0 0 1.31-.77l.54-.97a.5.5 0 0 1 .43-.26h9.02a1.5 1.5 0 0 0 1.5-1.5v-16A1.5 1.5 0 0 0 29.5 7zM16.48 8a2 2 0 0 1 2-2H28v17h-8.02a3.05 3.05 0 0 0-2.88 2h-.62zM4 6h9.48a2 2 0 0 1 2 2v17h-.62a3.05 3.05 0 0 0-2.88-2H4zm26 18.5a.5.5 0 0 1-.5.5h-9.02a1.5 1.5 0 0 0-1.31.77l-.53.97a.5.5 0 0 1-.44.26h-4.45a.5.5 0 0 1-.43-.25l-.58-1a1.5 1.5 0 0 0-1.3-.75H2.52a.5.5 0 0 1-.5-.5v-16a.5.5 0 0 1 .5-.5H3v16h8.98a2.06 2.06 0 0 1 2 1.6l.1.4h3.8l.09-.4a2.06 2.06 0 0 1 2-1.6H29V8h.5a.5.5 0 0 1 .5.5z" /></svg>