<?xml version="1.0" encoding="UTF-8" standalone="no"?><svg xmlns="http://www.w3.org/2000/svg" xmlns:xlink="http://www.w3.org/1999/xlink" height="240px" version="1.1" viewBox="0 0 240 240" width="240px">
    <!-- Generator: Sketch 57.1 (83088) - https://sketch.com -->
    <title>lokalnie mono lg</title>
    <desc>Created with Sketch.</desc>
    <g fill="none" fill-rule="evenodd" id="lokalnie-mono-lg" stroke="none" stroke-width="1">
        <g fill="#767676" id="Icons-/-48-/-Allegro-Lokalnie-Mono" transform="translate(10.909091, 10.909091)">
            <g id="Allegro-Lokalnie-mono-paths-Copy-3" transform="translate(18.166667, 40.875000)">
                <path d="M0,61.7922535 L0,137.529343 L27.1860329,137.529343 L27.1860329,93.3920188 L30.8961268,93.3920188 L30.8961268,137.529343 L58.0821596,137.529343 L58.0821596,134.970657 L58.0821596,61.7922535 L0,61.7922535 Z M5.11737089,66.9096244 L52.9647887,66.9096244 L52.9647887,132.411972 L36.0134977,132.411972 L36.0134977,88.2746479 L22.068662,88.2746479 L22.068662,132.411972 L5.11737089,132.411972 L5.11737089,66.9096244 Z" fill-rule="nonzero" id="Fill-1"/>
                <path d="M61.7922535,0 L61.7922535,137.529343 L88.9782864,137.529343 L88.9782864,31.5997653 L92.6883803,31.5997653 L92.6883803,137.529343 L119.874413,137.529343 L119.874413,134.970657 L119.874413,0 L61.7922535,0 Z M66.9096244,5.11737089 L114.757042,5.11737089 L114.757042,132.411972 L97.8057512,132.411972 L97.8057512,26.4823944 L83.8609155,26.4823944 L83.8609155,132.411972 L66.9096244,132.411972 L66.9096244,5.11737089 Z" fill-rule="nonzero" id="Fill-2"/>
                <path d="M152.625587,25.4309343 L123.584507,54.3340846 L123.584507,137.529343 L150.77054,137.529343 L150.77054,88.9782864 L154.480634,88.9782864 L154.480634,137.529343 L181.666667,137.529343 L181.666667,134.970657 L181.666667,54.3340846 L152.625587,25.4309343 Z M152.625587,32.6512253 L176.549296,56.4609919 L176.549296,132.411972 L159.598005,132.411972 L159.598005,83.8609155 L145.653169,83.8609155 L145.653169,132.411972 L128.701878,132.411972 L128.701878,56.4609919 L152.625587,32.6512253 Z" fill-rule="nonzero" id="Fill-3"/>
            </g>
        </g>
    </g>
</svg>