<?xml version="1.0" encoding="UTF-8" standalone="no"?><svg xmlns="http://www.w3.org/2000/svg" fill="#767676" viewBox="0 0 32 32"><path d="M18 28a12.02 12.02 0 0 1-3.57-.54 12.26 12.26 0 0 1-5.88-4.07l.78-.63a11.27 11.27 0 0 0 5.4 3.75 11 11 0 1 0-5.4-17.27l-.8-.62A12 12 0 1 1 18 28zm-8-15H2v1h8zm1 3H3v1h8zm1 3H4v1h8zm9.92-6.24l-.84-.52-5 8 .84.53zM18 14.5v-1a1.5 1.5 0 0 0-1.5-1.5h-1a1.5 1.5 0 0 0-1.5 1.5v1a1.5 1.5 0 0 0 1.5 1.5h1a1.5 1.5 0 0 0 1.5-1.5zM16.5 13a.5.5 0 0 1 .5.5v1a.5.5 0 0 1-.5.5h-1a.5.5 0 0 1-.5-.5v-1a.5.5 0 0 1 .5-.5zm7.5 6.5v-1a1.5 1.5 0 0 0-1.5-1.5h-1a1.5 1.5 0 0 0-1.5 1.5v1a1.5 1.5 0 0 0 1.5 1.5h1a1.5 1.5 0 0 0 1.5-1.5zM22.5 18a.5.5 0 0 1 .5.5v1a.5.5 0 0 1-.5.5h-1a.5.5 0 0 1-.5-.5v-1a.5.5 0 0 1 .5-.5z" /></svg>