<?xml version="1.0" encoding="UTF-8" standalone="no"?><svg xmlns="http://www.w3.org/2000/svg" viewBox="0 0 32 32" x="0px" y="0px">
<style>.st0 { fill: rgb(217, 223, 228) }.st1 { fill: rgb(255, 123, 51) }.st2 { fill: rgb(176, 184, 188) }</style><g>
	<path class="st0" d="M9,14.9v0.5V23v0.9H5.7c-1.9,0-3.4-1.5-3.4-3.4v-5.6H9z" />
	<rect class="st0" height="6" transform="matrix(-1 -4.529322e-11 4.529322e-11 -1 24.1222 37.8797)" width="2" x="11.1" y="15.9" />
	<rect class="st1" height="2" width="2" x="7" y="18.9" />
	<path class="st2" d="M29.5,10.7c-0.4-0.5-1-0.7-1.8-0.7H23l0-3.5c0-1.4-0.8-2.4-1.9-2.4H19l0,4.1l-1.7,5.1C17,13.9,16.9,14,16.6,14   h-0.3l0,0h-2.2v-1h-3v-1h-9c0,0.3,0,0.7,0,1h8l0,10l-2.9,0l0,0H5.7C4.2,23,3,21.8,3,20.3l0-5.4H2l0,5.4c0,2,1.6,3.6,3.6,3.6h5.4v-1   h3l0-1h2.8c0.2,0.6,0.9,1,1.7,1c0.1,0,0.1,0,0.2,0c1.3,0,5.5,0,7.8,0c1,0,1.9-0.7,2-1.7l1.2-8.5C30.1,11.9,29.9,11.2,29.5,10.7z    M13.1,21.9h-2v-8h2V21.9z M28.9,12.7l0,0.3h-0.8l0.6,1.1h0L28.4,16h-0.8l0.6,1.1h0L28,18.9h-0.7l0.6,1l-0.2,1.2   c-0.1,0.5-0.5,0.8-1.1,0.8c-2.4,0-7,0-8.1,0c-0.4,0-0.7-0.3-0.7-0.6V21h-0.9c0,0,0,0,0,0h-2.8l0-6h2.1l0,0h0.4   c1.1,0,1.4-0.8,1.6-1.4L20,8.4l0-3.3h1.1c0.5,0,0.9,0.6,0.9,1.5l0,4.5h5.7c0.5,0,0.9,0.1,1,0.3C29,11.7,29,12.2,28.9,12.7z" />
</g>
</svg>