<svg xmlns="http://www.w3.org/2000/svg" viewBox="0 0 32 32" fill="#767676"><path d="M16 3.005a8.013 8.013 0 0 0-8 8.023L8.5 21.5a7.5 7.5 0 0 0 15 .012l.5-10.507a8.009 8.009 0 0 0-8-8zm0 1a7.005 7.005 0 0 1 7 6.976l-.242 5.081-8.336 4.413-5.06-1.875L9 11.005a7.009 7.009 0 0 1 7-7zm6.5 17.5a6.463 6.463 0 0 1-.276 1.865l-6.544-2.429 7.02-3.719-.2 4.255zM16 28a6.514 6.514 0 0 1-6.5-6.523l-.085-1.791L21.859 24.3A6.5 6.5 0 0 1 16 28zM16 17a6 6 0 1 0-6-6 6.006 6.006 0 0 0 6 6zm0-11a5 5 0 1 1-5 5 5.006 5.006 0 0 1 5-5zM13 10.492a.5.5 0 0 0 .5-.5.5.5 0 0 1 1 0 .5.5 0 0 0 1 0 1.5 1.5 0 0 0-3 0 .5.5 0 0 0 .5.5zM17 10.492a.5.5 0 0 0 .5-.5.5.5 0 0 1 1 0 .5.5 0 0 0 1 0 1.5 1.5 0 0 0-3 0 .5.5 0 0 0 .5.5zM14.5 13a1.5 1.5 0 1 0 1.5-1.5 1.5 1.5 0 0 0-1.5 1.5zm1.5-.5a.5.5 0 1 1-.5.5.5.5 0 0 1 .5-.5z"/></svg>