<svg xmlns="http://www.w3.org/2000/svg" viewBox="0 0 32 32" fill="#767676"><path d="M16 4a12 12 0 1 0 12 12A12.013 12.013 0 0 0 16 4zm9.763 17.046l-5.029 1.372-1.183-1.97 1.862-5.122 2.5-1.666 3.031 3.462a10.9 10.9 0 0 1-1.181 3.924zm-14.5 1.372l-5.026-1.372a10.9 10.9 0 0 1-1.18-3.924l3.031-3.462 2.5 1.666 1.862 5.122zm-3.784-9.582l-2.461 2.813a10.921 10.921 0 0 1 2.1-6.1zM13.351 20l-1.759-4.834L16 11.641l4.408 3.525L18.649 20zm11.17-7.164l.366-3.292a10.921 10.921 0 0 1 2.095 6.1zM24 8.473l-.471 4.24-2.5 1.668-4.529-3.622V7.825l4.08-1.813A11.024 11.024 0 0 1 24 8.473zM19.274 5.5L16 6.953 12.726 5.5a11.011 11.011 0 0 1 6.548 0zm-7.854.514l4.08 1.811v2.934l-4.526 3.622-2.5-1.668L8 8.473a11.024 11.024 0 0 1 3.42-2.461zM6.987 22.288l4.178 1.139 1.733 3.12a11.028 11.028 0 0 1-5.911-4.259zm7.219 4.552l-2.129-3.831L13.283 21h5.434l1.206 2.009-2.129 3.831a10.138 10.138 0 0 1-3.588 0zm4.9-.293l1.733-3.12 4.178-1.139a11.028 11.028 0 0 1-5.917 4.259z"/></svg>