<svg xmlns="http://www.w3.org/2000/svg" viewBox="0 0 32 32" fill="#767676"><path d="M27 15v-4.5a4.476 4.476 0 0 0-2.5-4.026V3a1 1 0 0 0-1-1h-2a1 1 0 0 0-1 1v3.474a4.481 4.481 0 0 0-1.8 1.619A3.5 3.5 0 0 0 12 9.5v2.073A2.423 2.423 0 0 0 10.5 11a3.061 3.061 0 0 0-1.025.171.867.867 0 0 1 .155-.362 1.05 1.05 0 0 1 .87-.309.5.5 0 0 0 0-1 1.981 1.981 0 0 0-1.658.693 1.932 1.932 0 0 0-.377.956A3.11 3.11 0 0 0 7.5 11 2.634 2.634 0 0 0 5 13.5a5.032 5.032 0 0 0 .2 1.5H3.934l1.351 10.81A2.5 2.5 0 0 0 7.766 28h16.468a2.5 2.5 0 0 0 2.481-2.189L28.066 15zm-5.812-7.739l.312-.127V3h2v4.134l.313.127A3.481 3.481 0 0 1 26 10.5V15h-7v-1h4v-4h-3.963a3.481 3.481 0 0 1 2.151-2.739zM19 11h3v2h-3zm-3.5-4A2.5 2.5 0 0 1 18 9.5V15h-5v-2.5h1.5a.5.5 0 0 0 0-1H13V10h2a.5.5 0 0 0 0-1h-1.949A2.5 2.5 0 0 1 15.5 7zM6 13.5A1.648 1.648 0 0 1 7.5 12a1.731 1.731 0 0 1 1.146.354c.011.01.025.014.036.023a.463.463 0 0 0 .046.031.5.5 0 0 0 .252.085c.008 0 .013.007.02.007a.5.5 0 0 0 .121-.015c.016 0 .027-.014.042-.019s.038-.019.058-.028a.494.494 0 0 0 .1-.064c.007-.006.017-.008.024-.015A1.731 1.731 0 0 1 10.5 12a1.648 1.648 0 0 1 1.5 1.5 3.368 3.368 0 0 1-.256 1.5H6.271A3.37 3.37 0 0 1 6 13.5zm19.723 12.187A1.5 1.5 0 0 1 24.234 27H7.766a1.5 1.5 0 0 1-1.489-1.314L5.066 16h21.868zM19.92 20.792a4 4 0 0 1-7.84 0A.981.981 0 0 0 12.5 20a1 1 0 1 0-1.408.908 4.989 4.989 0 0 0 9.816 0A1 1 0 1 0 19.5 20a.981.981 0 0 0 .42.792z"/></svg>