<?xml version="1.0" encoding="UTF-8" standalone="no"?><svg xmlns="http://www.w3.org/2000/svg" fill="#767676" viewBox="0 0 32 32"><path d="M21 22a2 2 0 1 0-2-2 2 2 0 0 0 2 2zm0-3a1 1 0 1 1-1 1 1 1 0 0 1 1-1zm8-3h-2v-5.5A3.5 3.5 0 0 0 23.5 7H22a6.5 6.5 0 0 0-12 0H8.5A3.5 3.5 0 0 0 5 10.5v14A3.5 3.5 0 0 0 8.5 28h15a3.5 3.5 0 0 0 3.5-3.5v-.49h2zm-5.5-8a2.5 2.5 0 0 1 2.5 2.5V12h-4.01a6.31 6.31 0 0 0 .33-4zM16 4a5.5 5.5 0 0 1 5.5 5.5 5.43 5.43 0 0 1-.62 2.5h-9.76a5.43 5.43 0 0 1-.62-2.5A5.5 5.5 0 0 1 16 4zM6 10.5h3v-1H6.2A2.5 2.5 0 0 1 8.5 8h1.2a6.31 6.31 0 0 0 .32 4H6zm20 14a2.5 2.5 0 0 1-2.5 2.5h-15A2.5 2.5 0 0 1 6 24.5V13h20v3h-6.99a3 3 0 0 0-3 3V21a3 3 0 0 0 3 3H26zm2-1.49H19a2 2 0 0 1-2-2V19a2 2 0 0 1 2-2H28zM15.5 10.5V6h1v3.5H19v1z" /></svg>