<svg xmlns="http://www.w3.org/2000/svg" viewBox="0 0 32 32" fill="#767676"><path d="M28.81 5.107a.5.5 0 0 0-.426-.093L16 7.985 3.616 5.014A.5.5 0 0 0 3 5.5v18.023a.5.5 0 0 0 .348.477l12.5 2.977A.518.518 0 0 0 16 27a.5.5 0 0 0 .116-.014l12.5-3A.5.5 0 0 0 29 23.5v-18a.5.5 0 0 0-.19-.393zM4 6.134l11.5 2.76v16.921L4 23.158zm24 16.971l-11.5 2.761V8.894L28 6.134zM26.379 19.515l-8 2a.5.5 0 1 0 .242.97l8-2a.5.5 0 1 0-.242-.97zM18.5 19a.5.5 0 0 0 .121-.015l8-2a.5.5 0 1 0-.242-.97l-8 2A.5.5 0 0 0 18.5 19zM18.5 15.5a.5.5 0 0 0 .121-.015l8-2a.5.5 0 0 0-.242-.97l-8 2a.5.5 0 0 0 .121.985zM18.5 12a.5.5 0 0 0 .121-.015l8-2a.5.5 0 0 0-.242-.97l-8 2A.5.5 0 0 0 18.5 12zM13.621 21.515l-8-2a.5.5 0 0 0-.242.97l8 2a.507.507 0 0 0 .121.015.5.5 0 0 0 .121-.985zM13.621 18.015l-8-2a.5.5 0 0 0-.242.97l8 2A.507.507 0 0 0 13.5 19a.5.5 0 0 0 .121-.985zM13.621 14.515l-8-2a.5.5 0 1 0-.242.97l8 2a.507.507 0 0 0 .121.015.5.5 0 0 0 .121-.985zM5.379 9.985l8 2A.507.507 0 0 0 13.5 12a.5.5 0 0 0 .121-.985l-8-2a.5.5 0 1 0-.242.97z"/></svg>