<svg xmlns="http://www.w3.org/2000/svg" viewBox="0 0 75.94 42.03" fill="#ebac15"><path d="M53.83 34.63l-2.64 1.52-4 2.3-4.25 2.45a9 9 0 0 1-4.18 1.1h-.5a7 7 0 0 1-2.4-.49c-1.17-.54-1.42-1.52 0-2.4 1.18-.7 1.83-1.05 1.83-1.05A12.41 12.41 0 0 0 44 27.37V14.6A12.39 12.39 0 0 0 37.67 4l-2.61-1.5c-.81-.5-.83-1.24-.06-1.6a8.85 8.85 0 0 1 3.28-.9h.5A8.93 8.93 0 0 1 43 1.12l4.09 2.48 4 2.28 2.64 1.52a8.42 8.42 0 0 1 4.21 7.25v12.7a8.33 8.33 0 0 1-4.11 7.28zM71.73 7.4l-2.64-1.52-4-2.28L61 1.13A8.93 8.93 0 0 0 56.78 0h-.5A8.85 8.85 0 0 0 53 .91c-.75.36-.72 1.1.08 1.56L55.67 4A12.39 12.39 0 0 1 62 14.6v12.78a12.41 12.41 0 0 1-6.23 10.71s-.65.35-1.83 1.05c-1.47.88-1.21 1.86 0 2.4a7 7 0 0 0 2.4.49h.5a9 9 0 0 0 4.18-1.12l4.26-2.46 4-2.3 2.64-1.52a8.33 8.33 0 0 0 4.11-7.27V14.65a8.42 8.42 0 0 0-4.3-7.25zM34.79 34.61l-2.65 1.52L28 38.5l-4.14 2.37A8.46 8.46 0 0 1 20 42h-.71a8.46 8.46 0 0 1-4.22-1.12L4.2 34.61A8.37 8.37 0 0 1 0 27.37V14.69a8.37 8.37 0 0 1 4.22-7.24l10.9-6.26A8.46 8.46 0 0 1 19.34.07H20a8.46 8.46 0 0 1 3.86 1.1l4.18 2.39 4 2.35 2.65 1.52A8.33 8.33 0 0 1 39 14.6v12.77a8.37 8.37 0 0 1-4.21 7.24zM31 14h-4.56a4.08 4.08 0 0 0-4.19 2.84L20 22.77c-.14.34-.33.48-.53.48a.65.65 0 0 1-.57-.51l-2.1-5.86A4.06 4.06 0 0 0 12.6 14H8v15h3V17.08h1.55a1.58 1.58 0 0 1 1.53 1.17s2 5 2.58 6.46A3.22 3.22 0 0 0 19.52 27c1 0 2-.77 2.71-2.3s2.68-6.4 2.68-6.4a1.76 1.76 0 0 1 1.89-1.23H28V29h3z"/></svg>