<?xml version="1.0" encoding="UTF-8" standalone="no"?><svg xmlns="http://www.w3.org/2000/svg" fill="#767676" viewBox="0 0 32 32"><path d="M30 11.5a1.5 1.5 0 0 0-1.5-1.5h-7.48a8.19 8.19 0 0 0 2.38-1.61 3.74 3.74 0 0 0-5.29-5.29 8.81 8.81 0 0 0-2.14 3.87 7.4 7.4 0 0 0-1.71-3 3.25 3.25 0 0 0-4.6 4.59A8.17 8.17 0 0 0 11.69 10H3.5A1.5 1.5 0 0 0 2 11.5V17h2v9.5A2.5 2.5 0 0 0 6.5 29h19a2.5 2.5 0 0 0 2.5-2.5V17h2zM18 16h-4v-5h4zm-4 12V17h4v11zm4.82-24.2a2.74 2.74 0 1 1 3.88 3.88A8.9 8.9 0 0 1 16.51 10a8.9 8.9 0 0 1 2.3-6.19zm-8.44.86a2.25 2.25 0 0 1 3.17 0 7.86 7.86 0 0 1 1.94 5.32 7.56 7.56 0 0 1-5.11-2.14 2.25 2.25 0 0 1 0-3.17zM3 16v-4.5a.5.5 0 0 1 .5-.5H13v5H3zm3.5 12A1.5 1.5 0 0 1 5 26.5V17h8v11zM27 26.5a1.5 1.5 0 0 1-1.5 1.5H19V17h8zM29 16H19v-5h9.5a.5.5 0 0 1 .5.5z" /></svg>