<?xml version="1.0" encoding="UTF-8" standalone="no"?><svg xmlns="http://www.w3.org/2000/svg" fill="#767676" viewBox="0 0 32 32"><path d="M26.5 26h-21A3.5 3.5 0 0 1 2 22.5v-13A3.5 3.5 0 0 1 5.5 6h21A3.5 3.5 0 0 1 30 9.5v13a3.5 3.5 0 0 1-3.5 3.5zM5.5 7A2.5 2.5 0 0 0 3 9.5v13A2.5 2.5 0 0 0 5.5 25h21a2.5 2.5 0 0 0 2.5-2.5v-13A2.5 2.5 0 0 0 26.5 7zm8.16 5.5a.66.66 0 0 1 .3.07l5.68 2.84a.66.66 0 0 1 0 1.18l-5.69 2.84a.64.64 0 0 1-.3.07.66.66 0 0 1-.65-.66v-5.68a.66.66 0 0 1 .66-.66m0-1A1.66 1.66 0 0 0 12 13.16v5.68a1.65 1.65 0 0 0 2.4 1.48l5.69-2.84a1.66 1.66 0 0 0 0-2.96l-5.69-2.84a1.65 1.65 0 0 0-.74-.18z" /></svg>