<?xml version="1.0" encoding="UTF-8" standalone="no"?><svg xmlns="http://www.w3.org/2000/svg" fill="#767676" viewBox="0 0 32 32"><path d="M26 2H6v1h3.52v4.77a7.47 7.47 0 00-1 3.72v7.94L8.5 30l.58-.09c.33-.05 14.42-2.2 14.42-15.42v-3a7.47 7.47 0 00-1-3.72V3H26zM9.51 19.11a3.42 3.42 0 016.82.38c0 3.09-4.85 7-6.82 8.44zm13-4.62a13.13 13.13 0 01-6.72 11.87 20.81 20.81 0 01-5.55 2.29c2.15-1.6 7.1-5.66 7.1-9.22a4.41 4.41 0 00-7.82-2.81v-5.13A6.51 6.51 0 0110 9a8.37 8.37 0 015.65 2.28l.38.41.37-.42A8 8 0 0122 9a6.51 6.51 0 01.52 2.54zM10.56 8a6.48 6.48 0 0110.89 0A9.09 9.09 0 0016 10.2 9.32 9.32 0 0010.56 8zM21.5 3v3.41a7.46 7.46 0 00-11 0V3h11zM23 27.5a.5.5 0 01-.5.5h-4a.5.5 0 010-1h4a.5.5 0 01.5.5zM12.85 11.15a.48.48 0 010 .7.36.36 0 01-.16.11.47.47 0 01-.38 0 .36.36 0 01-.16-.11.48.48 0 010-.7.49.49 0 01.54-.11.36.36 0 01.16.11zm7 0a.5.5 0 01-.35.85.41.41 0 01-.19 0 .36.36 0 01-.16-.11.48.48 0 010-.7.36.36 0 01.16-.11.51.51 0 01.54.07z" /></svg>