<?xml version="1.0" encoding="UTF-8" standalone="no"?><svg xmlns="http://www.w3.org/2000/svg" fill="#767676" viewBox="0 0 32 32"><path d="M16 4a4.12 4.12 0 0 1 2.04.54l6.92 3.97A4.07 4.07 0 0 1 27 12.04v7.94a4.06 4.06 0 0 1-2.04 3.51l-6.92 3.98a4.12 4.12 0 0 1-4.08 0l-6.92-3.98A4.06 4.06 0 0 1 5 19.97v-7.94a4.07 4.07 0 0 1 2.04-3.51l6.92-3.98A4.11 4.11 0 0 1 16 4m0-1a5.1 5.1 0 0 0-2.54.67L6.54 7.65A5.07 5.07 0 0 0 4 12.03v7.94a5.07 5.07 0 0 0 2.54 4.38l6.92 3.98a5.12 5.12 0 0 0 5.08 0l6.92-3.98A5.07 5.07 0 0 0 28 19.97v-7.94a5.07 5.07 0 0 0-2.54-4.38l-6.92-3.98A5.1 5.1 0 0 0 16 3zm7 9h-2.6a2 2 0 0 0-1.76 1.05l-2.28 4.24a.4.4 0 0 1-.71 0l-2.28-4.24A2 2 0 0 0 11.6 12H9v9h1v-8h1.6a1 1 0 0 1 .88.53l2.28 4.23a1.4 1.4 0 0 0 2.47 0l2.28-4.23a1 1 0 0 1 .89-.53H22v8h1z" /></svg>