<?xml version="1.0" encoding="UTF-8" standalone="no"?><svg xmlns="http://www.w3.org/2000/svg" fill="#767676" viewBox="0 0 32 32"><path d="M18 29l-.52-.46a37.15 37.15 0 0 1-4.53-4.76 30.97 30.97 0 0 1-1.45-1.99l.83-.56c.42.64.9 1.29 1.4 1.92A36.06 36.06 0 0 0 18 27.67a36.3 36.3 0 0 0 4.27-4.52c2.16-2.72 4.74-6.87 4.74-11.21a9.01 9.01 0 0 0-17.7-2.3l-.97-.26A10.01 10.01 0 0 1 28 11.94c0 4.63-2.7 9-4.95 11.84a37.3 37.3 0 0 1-4.53 4.76zm3-9a3 3 0 1 0-3 3 3 3 0 0 0 3-3zm-1 0a2 2 0 1 1-2-2 2 2 0 0 1 2 2zm.16-5.86l.83-5.99A1 1 0 0 0 20 7h-4a1 1 0 0 0-1 1.15l.84 6a1 1 0 0 0 .99.84h2.34a1 1 0 0 0 1-.86zM16.83 14L16 8h4l-.83 6zM10 12.01H2v1h8zm1 3H3v1h8zm1 3H4v1h8z" /></svg>