<svg xmlns="http://www.w3.org/2000/svg" viewBox="0 0 32 32" fill="#767676"><path d="M26.5 9H21V7.5A2.5 2.5 0 0 0 18.5 5h-5A2.5 2.5 0 0 0 11 7.5V9H5.5A2.5 2.5 0 0 0 3 11.5v14A2.5 2.5 0 0 0 5.5 28h21a2.5 2.5 0 0 0 2.5-2.5v-14A2.5 2.5 0 0 0 26.5 9zM12 7.5A1.5 1.5 0 0 1 13.5 6h5A1.5 1.5 0 0 1 20 7.5V9h-8zm16 18a1.5 1.5 0 0 1-1.5 1.5h-21A1.5 1.5 0 0 1 4 25.5v-14A1.5 1.5 0 0 1 5.5 10h21a1.5 1.5 0 0 1 1.5 1.5zM20.5 16H18v-2.5a1.5 1.5 0 0 0-1.5-1.5h-1a1.5 1.5 0 0 0-1.5 1.5V16h-2.5a1.5 1.5 0 0 0-1.5 1.5v1a1.5 1.5 0 0 0 1.5 1.5H14v2.5a1.5 1.5 0 0 0 1.5 1.5h1a1.5 1.5 0 0 0 1.5-1.5V20h2.5a1.5 1.5 0 0 0 1.5-1.5v-1a1.5 1.5 0 0 0-1.5-1.5zm.5 2.5a.5.5 0 0 1-.5.5H17v3.5a.5.5 0 0 1-.5.5h-1a.5.5 0 0 1-.5-.5V19h-3.5a.5.5 0 0 1-.5-.5v-1a.5.5 0 0 1 .5-.5H15v-3.5a.5.5 0 0 1 .5-.5h1a.5.5 0 0 1 .5.5V17h3.5a.5.5 0 0 1 .5.5z"/></svg>