<svg xmlns="http://www.w3.org/2000/svg" viewBox="0 0 943 257"><path fill="#ff5c00" d="M846.33 0C793 0 749.82 44.21 749.82 97.51c0 70.4 96.51 159.49 96.51 159.49 5.59-5.1 96.52-88.8 96.52-159.49 0-53.3-43.22-97.51-96.52-97.51zm-.57 199a25.83 25.83 0 1 1 25.9-25.54 25.8 25.8 0 0 1-25.9 25.54zm18.9-70.5l-36.86-.26-16.51-90.12 71.16.51z"/><path fill="#422779" d="M279.3 45.09a26 26 0 0 0-23.15 14.1L224 121.55l-32.43-62.41a26 26 0 0 0-23.13-14 26 26 0 0 0-26.05 26.05v112.24a18.61 18.61 0 1 0 37.22 0v-80.27l29.89 60.56a16 16 0 0 0 28.78 0l29.89-60.56v80.27A18.61 18.61 0 0 0 286.74 202a18.62 18.62 0 0 0 18.62-18.61V71.14a26.05 26.05 0 0 0-26.06-26.05zM414.68 63.64a28.73 28.73 0 0 0-26.87-18.55 28.73 28.73 0 0 0-26.87 18.55L318 177.16a18.37 18.37 0 1 0 34.55 12.51l8.28-23.95h54l8.28 23.95A18.38 18.38 0 0 0 440.47 202a18.37 18.37 0 0 0 17.18-24.88zm-42.46 68.89L387.92 87l15.7 45.51zM716.82 45.09H621.3a16.59 16.59 0 1 0 0 33.18h28.92v105.05a18.73 18.73 0 0 0 37.45 0v-105h29.15a16.59 16.59 0 0 0 0-33.18zM544.84 45.09h-51.11a20.19 20.19 0 0 0-20.2 20.19v118.15a18.61 18.61 0 0 0 37.22 0v-36.32h21.33l36.8 47.89a17.21 17.21 0 1 0 27.71-20.42l-24.82-31.43c19.35-6.89 28.23-22.73 28.23-46.49v-.9c0-32.76-17-50.67-55.16-50.67zm-34.09 33.18h30c15.25 0 21.08 7 21.08 18.17 0 10.76-5.16 17.71-19.06 17.71h-32.02zM77.1 106.28c-32-6.72-36.52-9-36.52-16.13 0-9.63 9-15.68 23.3-15.68 12.44 0 23.6 2.83 33.49 8.69a1.64 1.64 0 0 1 .22.14 16.36 16.36 0 0 0 18.67-26.87C102.85 47 84.36 41.76 64.33 41.76 27.59 41.76 3 61.93 3 92c0 24.86 18.14 39.2 56.45 47 25.09 4.93 29.8 7.84 29.8 17 0 10.08-9.63 16.58-24.64 16.58a61.29 61.29 0 0 1-37.55-13A16.3 16.3 0 1 0 5.8 184.34a2 2 0 0 0 .16.14c15.54 13.33 36.78 20.83 59.72 20.83 36.51 0 62.05-20.84 62.05-51.31 0-25.54-15.45-40.55-50.63-47.72z"/></svg>