<svg xmlns="http://www.w3.org/2000/svg" viewBox="0 0 32 32"><path d="M16 7.3c2.8 0 3.2 0 4.3.1.7 0 1.3.1 2 .4.9.4 1.7 1.1 2 2 .2.6.4 1.3.4 2 .1 1.1.1 1.5.1 4.3s0 3.2-.1 4.3c0 .7-.1 1.3-.4 2-.4.9-1.1 1.7-2 2-.6.2-1.3.4-2 .4-1.1.1-1.5.1-4.3.1s-3.2 0-4.3-.1c-.7 0-1.3-.1-2-.4-.9-.4-1.7-1.1-2-2-.2-.6-.4-1.3-.4-2-.1-1.1-.1-1.5-.1-4.3s0-3.2.1-4.3c0-.7.1-1.3.4-2 .4-.9 1.1-1.7 2-2 .6-.2 1.3-.4 2-.4 1.1-.1 1.5-.1 4.3-.1m0-2c-2.9 0-3.3 0-4.4.1-.9 0-1.8.2-2.6.5-1.4.5-2.6 1.7-3.1 3.1-.3.8-.5 1.7-.5 2.6-.1 1.1-.1 1.5-.1 4.4s0 3.3.1 4.4c0 .9.2 1.8.5 2.6.6 1.4 1.7 2.6 3.1 3.1.8.3 1.7.5 2.6.5 1.1.1 1.5.1 4.4.1s3.3 0 4.4-.1c.9 0 1.8-.2 2.6-.5 1.4-.6 2.6-1.7 3.1-3.1.3-.8.5-1.7.5-2.6.1-1.1.1-1.5.1-4.4s0-3.3-.1-4.4c0-.9-.2-1.8-.5-2.6-.6-1.4-1.7-2.6-3.1-3.1-.8-.3-1.7-.5-2.6-.5-1.1-.1-1.5-.1-4.4-.1zm0 5.2c-3 0-5.5 2.5-5.5 5.5s2.5 5.5 5.5 5.5 5.5-2.5 5.5-5.5-2.5-5.5-5.5-5.5zm0 9.1c-2 0-3.6-1.6-3.6-3.6s1.6-3.6 3.6-3.6 3.6 1.6 3.6 3.6-1.6 3.6-3.6 3.6zM21.7 9c.7 0 1.3.6 1.3 1.3s-.6 1.3-1.3 1.3-1.3-.6-1.3-1.3S21 9 21.7 9z"/></svg>