<svg xmlns="http://www.w3.org/2000/svg" viewBox="0 0 32 32" fill="#767676"><path d="M28 14v-2.993a1 1 0 0 0-1-1l.029-4.092-.682-1.9L26.012 4a2.628 2.628 0 0 0-2.073 1.269c-.76 1.042-.913 3.007-.935 4.738h-.011a1 1 0 0 0-1 1V14A1 1 0 0 0 21 15v12a1 1 0 0 0 1 1h6a1 1 0 0 0 1-1V15a1 1 0 0 0-1-1zm-3.252-8.144a2.189 2.189 0 0 1 .921-.779l.361 1.008-.03 3.922h-2c.015-1.189.1-3.264.748-4.151zm-1.755 5.151H27V14h-4.007zM28 27h-6V15h6zM16.443 14.242a12.223 12.223 0 0 0-2.457 1.188A8.176 8.176 0 0 0 9.592 14a7.726 7.726 0 0 0-5.365 2.158l-.082.087C3.515 16.1 3 16 3 16v1s.524.13 1.455.339a15.168 15.168 0 0 0 6.393 4.137 10.626 10.626 0 0 0 3.3.531 11.1 11.1 0 0 0 5.852-1.7v-1.224l-.311.23a10.024 10.024 0 0 1-8.534 1.211 14.294 14.294 0 0 1-4.841-2.77c1.325.295 2.791.618 3.925.86a19.1 19.1 0 0 0 3.973.487 11.488 11.488 0 0 0 2.912-.367A19.3 19.3 0 0 0 20 17.816v-1.1l-.393.18a18.326 18.326 0 0 1-2.731.87 13.355 13.355 0 0 1-6.428-.13 677.419 677.419 0 0 1-5.118-1.125A6.843 6.843 0 0 1 9.592 15a7.356 7.356 0 0 1 4.066 1.425l.285.225.3-.2a12.276 12.276 0 0 1 2.5-1.254 5.2 5.2 0 0 1 2.675-.05c.254.052.581.161.581.161v-1a2.619 2.619 0 0 0-.487-.153 6.634 6.634 0 0 0-3.069.088z"/></svg>