<svg xmlns="http://www.w3.org/2000/svg" viewBox="0 0 32 32" fill="#bd081c"><path d="M16 5.3C10.1 5.3 5.3 10.1 5.3 16c0 4.4 2.7 8.3 6.8 9.9-.1-1-.1-2 0-3.1.2-.8 1.3-5.3 1.3-5.3-.2-.5-.3-1-.3-1.6 0-1.5.9-2.6 1.9-2.6.9 0 1.3.7 1.3 1.5 0 .9-.6 2.3-.9 3.6-.2.8.3 1.7 1.1 1.9.1 0 .3.1.5 0 1.9 0 3.4-2 3.4-4.9 0-2.6-1.8-4.3-4.5-4.3-3 0-4.8 2.3-4.8 4.6 0 .9.3 1.7.8 2.4.1.1.1.2.1.3-.1.3-.3 1.1-.3 1.2 0 .2-.2.2-.4.1-1.3-.6-2.2-2.6-2.2-4.1 0-3.4 2.4-6.5 7-6.5 3.7 0 6.6 2.6 6.6 6.2 0 3.7-2.3 6.6-5.5 6.6-1.1 0-2.1-.6-2.4-1.2 0 0-.5 2-.7 2.5-.3 1-.8 1.9-1.3 2.8 5.6 1.7 11.6-1.4 13.4-7 1.7-5.6-1.4-11.6-7-13.4-1.1-.1-2.1-.3-3.2-.3z"/></svg>