<svg xmlns="http://www.w3.org/2000/svg" viewBox="0 0 40.2 8.7"><path fill="#422779" d="M1.7 8.3c-.5-.2-.9-.5-1.2-.9-.3-.3-.5-.7-.5-1.2 0-.1 0-.1.1-.2h2c.1 0 .1.1.2.2.1.2.3.4.5.5.3.1.6.2.9.2.3 0 .7 0 1-.2.2-.2.3-.4.3-.6 0-.2-.1-.3-.2-.4-.1-.2-.3-.3-.5-.3-.3-.1-.6-.2-1.1-.3-.8-.1-1.6-.4-2.2-.9-.5-.4-.8-1-.7-1.7 0-.5.1-.9.4-1.3.3-.4.7-.7 1.1-.9C2.4.1 3 0 3.6 0c.6 0 1.3.1 1.8.4.5.2.9.5 1.2.9.3.3.4.7.4 1.1v.1c0 .1-.1.1-.2.1H5.1c-.2 0-.3-.1-.4-.2-.1-.2-.2-.3-.4-.4-.2-.1-.5-.2-.7-.2-.3 0-.6.1-.8.2-.2.1-.3.3-.3.5s.1.4.4.5c.4.2.9.3 1.3.4L6 4c.4.2.8.4 1 .8.2.4.3.8.3 1.2 0 .5-.2 1-.5 1.4-.3.4-.8.7-1.3.9-.6.3-1.2.4-1.9.4-.6 0-1.3-.2-1.9-.4zm6.7.1s-.1-.1-.1-.2V2.6c0-.1 0-.2.1-.2.1-.1.1-.1.2-.1H10c.1 0 .2 0 .2.1.1.1.1.1.1.2V3c.2-.2.5-.4.7-.6.3-.2.7-.2 1-.2.8-.1 1.5.3 1.8 1 .4-.6 1.1-1 1.9-1 .6 0 1.2.2 1.6.7.5.6.7 1.3.6 2v3.4c0 .1 0 .2-.1.2-.1.1-.1.1-.2.1h-1.4c-.1 0-.2 0-.2-.1V4.9c0-.3-.1-.6-.2-.8-.2-.2-.4-.3-.6-.3-.2 0-.5.1-.6.3-.2.2-.2.5-.2.8v3.3c0 .1 0 .2-.1.2-.1.1-.1.1-.2.1h-1.5c-.1 0-.1 0-.2-.1s-.1-.1-.1-.2V4.9c0-.3-.1-.6-.2-.8-.2-.2-.4-.3-.7-.3-.2 0-.5.1-.6.3-.2.2-.3.5-.2.8v3.3c0 .1 0 .2-.1.2-.1.1-.1.1-.2.1H8.6s-.1 0-.2-.1zm11.7 0c-.3-.1-.6-.4-.8-.7-.2-.3-.3-.6-.3-1 0-.5.2-1 .7-1.3.6-.4 1.2-.6 1.9-.7l1.4-.2v-.1c0-.2 0-.5-.2-.7-.2-.2-.4-.2-.6-.2-.1 0-.3 0-.4.1-.1.1-.2.2-.4.2 0 .1-.1.2-.2.2 0 .1-.1.1-.1.1h-1.4c-.1 0-.1 0-.2-.1-.1 0-.1-.1-.1-.2 0-.3.1-.5.3-.7.3-.3.6-.5 1-.7.5-.2 1-.3 1.6-.3.8-.1 1.6.2 2.2.7.5.5.8 1.1.7 1.8v3.6c0 .1 0 .2-.1.2-.1.1-.1.1-.2.1h-1.5c-.2 0-.3-.1-.3-.3v-.4c-.2.3-.4.5-.7.6-.8.3-1.6.3-2.3 0zm2.6-1.5c.2-.3.4-.6.3-1v-.2l-1 .2c-.7.1-1 .4-1 .7 0 .2.1.3.2.4.2.1.4.2.6.2.4 0 .7-.1.9-.3zm3.9 1.5c-.1-.1-.1-.1-.1-.2V2.6c0-.1 0-.2.1-.2.1-.1.1-.1.2-.1h1.5c.1 0 .2 0 .2.1.1.1.1.1.1.2v.5c.2-.2.5-.4.8-.6.3-.1.7-.2 1-.2h.5c.1 0 .2 0 .2.1.1.1.1.1.1.2v1.3c0 .1 0 .2-.1.2-.1.1-.1.1-.2.1h-1.3c-.3 0-.5.1-.7.3-.2.2-.3.5-.3.8v3c0 .1 0 .2-.1.2-.1.1-.1.1-.2.1h-1.6c0-.1-.1-.1-.1-.2zm6.1-2.3V3.9h-1c-.2 0-.3-.1-.3-.3v-1c0-.1 0-.2.1-.2.1-.1.1-.1.2-.1h1v-2c0-.1 0-.2.1-.2.1-.1.2-.1.2-.1h1.5c.1 0 .2 0 .2.1.1.1.1.1.1.2v2h1.5c.1 0 .2 0 .2.1.1.1.1.1.1.2v1c0 .1 0 .2-.1.2-.1.1-.1.1-.2.1h-1.5V6c0 .2 0 .4.1.6.1.1.3.2.5.2h.9c.1 0 .2 0 .2.1.1.1.1.1.1.2v1.1c0 .1 0 .2-.1.2-.1.1-.1.1-.2.1h-1.1c-1.6 0-2.5-.8-2.5-2.4zm5.1 2.3c-.1-.1-.1-.1-.1-.2V6.7c0-.1 0-.2.1-.2.1-.1.1-.1.2-.1h1.6c.1 0 .2 0 .2.1.1.1.1.1.1.2v1.6c0 .1 0 .2-.1.2-.1.1-.1.1-.2.1H38l-.2-.2zm0-2.7c-.1-.1-.1-.1-.1-.2V.4c0-.1 0-.2.1-.2.1-.1.1-.1.2-.1h1.4c.1 0 .2 0 .2.1.1.1.1.1.1.2v5.1c0 .1 0 .2-.1.2-.1.1-.1.1-.2.1H38s-.1 0-.2-.1z"/></svg>