<svg xmlns="http://www.w3.org/2000/svg" viewBox="0 0 96 32"><path d="M86.152 3.023a9.667 9.667 0 0 0-9.389 9.856c0 7.116 9.39 16.121 9.39 16.121s9.389-8.976 9.389-16.121a9.667 9.667 0 0 0-9.39-9.856" fill="#ff5a00"/><path d="M86.17 18.27a2.575 2.575 0 1 1-2.583 2.567 2.577 2.577 0 0 1 2.584-2.568m-2.017-1.756h3.863l1.878-8.721h-7.483z" fill="#fff"/><path d="M31.408 10.385v11.196a1.857 1.857 0 0 1-3.713 0v-8.004l-2.983 6.039a1.602 1.602 0 0 1-2.872 0l-2.982-6.039v8.004a1.857 1.857 0 0 1-3.714 0V10.385a2.599 2.599 0 0 1 2.6-2.598h.004a2.6 2.6 0 0 1 2.307 1.401l3.233 6.222 3.21-6.217a2.6 2.6 0 0 1 4.91 1.192zm15.513 10.57a1.833 1.833 0 1 1-3.447 1.248l-.826-2.388h-5.392l-.826 2.388a1.833 1.833 0 1 1-3.447-1.247l4.288-11.318a2.867 2.867 0 0 1 5.362 0zm-5.392-4.45l-1.565-4.537-1.567 4.538zm31.673-8.718h-9.53a1.654 1.654 0 1 0 0 3.309h2.886V21.57a1.868 1.868 0 0 0 3.736 0V11.096h2.908a1.654 1.654 0 1 0 0-3.309zM8.15 13.89c-3.098-.666-3.642-1.112-3.642-1.792 0-.714.947-1.38 2.43-1.38a6.234 6.234 0 0 1 3.235.866 1.929 1.929 0 0 0 1.177.26 1.633 1.633 0 0 0 1.293-1.065 1.57 1.57 0 0 0-.584-1.862 8.356 8.356 0 0 0-5.183-1.46C3.21 7.456.752 9.554.752 12.363c0 2.405 1.796 3.952 5.633 4.787 2.559.557 3.016 1.04 3.016 1.698 0 .92-.868 1.653-2.502 1.653a6.63 6.63 0 0 1-3.746-1.302 1.836 1.836 0 0 0-1.26-.38A1.57 1.57 0 0 0 .47 20.23a1.654 1.654 0 0 0 .583 1.456 9.125 9.125 0 0 0 5.958 2.077c3.644 0 6.192-2.077 6.192-5.115 0-2.547-1.53-4-5.052-4.758zm50.367 3.677l2.477 3.134a1.717 1.717 0 1 1-2.765 2.037l-3.672-4.778H52.43v3.622a1.857 1.857 0 0 1-3.714 0V9.801a2.014 2.014 0 0 1 2.015-2.013h5.1c3.803 0 5.503 1.855 5.503 5.119 0 0 .21 3.65-2.816 4.66zm-.987-4.66c0-1.204-.652-1.81-2.103-1.81H52.43v3.577h3.094c1.387 0 2.007-.693 2.007-1.766z" fill="#422779"/></svg>