<svg xmlns="http://www.w3.org/2000/svg" viewBox="0 0 32 32" fill="#767676"><path d="M26.5 26h-3v-1.5a.5.5 0 0 0-1 0V26h-4v-1.5a.5.5 0 0 0-1 0V26h-4v-1.5a.5.5 0 0 0-1 0V26h-4v-1.5a.5.5 0 0 0-1 0V26h-3A1.5 1.5 0 0 1 3 24.5v-3h1.5a.5.5 0 0 0 0-1H3v-4h1.5a.5.5 0 0 0 0-1H3v-4h1.5a.5.5 0 0 0 0-1H3v-3A1.5 1.5 0 0 1 4.5 6h3v1.5a.5.5 0 0 0 1 0V6h4v1.5a.5.5 0 0 0 1 0V6h4v1.5a.5.5 0 0 0 1 0V6h4v1.5a.5.5 0 0 0 1 0V6h3A1.5 1.5 0 0 1 28 7.5v2.54h-1V7.5a.5.5 0 0 0-.5-.5h-2v.5a1.5 1.5 0 0 1-3 0V7h-2v.5a1.5 1.5 0 0 1-3 0V7h-2v.5a1.5 1.5 0 0 1-3 0V7h-2v.5a1.5 1.5 0 0 1-3 0V7h-2a.5.5 0 0 0-.5.5v2h.5a1.5 1.5 0 0 1 0 3H4v2h.5a1.5 1.5 0 0 1 0 3H4v2h.5a1.5 1.5 0 0 1 0 3H4v2a.5.5 0 0 0 .5.5h2v-.5a1.5 1.5 0 0 1 3 0v.5h2v-.5a1.5 1.5 0 0 1 3 0v.5h2v-.5a1.5 1.5 0 0 1 3 0v.5h2v-.5a1.5 1.5 0 0 1 3 0v.5h2a.5.5 0 0 0 .5-.5V22h1v2.5a1.5 1.5 0 0 1-1.5 1.5zM9 15.04H8v-4.044l6.004.044-.008 1L9 12.004v3.036zM28.5 14a2.874 2.874 0 0 1-1.777-.584 2.006 2.006 0 0 0-2.446 0 3 3 0 0 1-3.554 0A1.894 1.894 0 0 0 19.5 13a1.7 1.7 0 0 0-1.556.73.506.506 0 0 1-.673.21.5.5 0 0 1-.218-.664A2.661 2.661 0 0 1 19.5 12a2.874 2.874 0 0 1 1.777.584 2.006 2.006 0 0 0 2.446 0 3 3 0 0 1 3.554 0A1.894 1.894 0 0 0 28.5 13a1.7 1.7 0 0 0 1.556-.73.506.506 0 0 1 .673-.21.5.5 0 0 1 .218.664A2.661 2.661 0 0 1 28.5 14zM28.5 17a2.874 2.874 0 0 1-1.777-.584 2.006 2.006 0 0 0-2.446 0 3 3 0 0 1-3.554 0A1.894 1.894 0 0 0 19.5 16a1.7 1.7 0 0 0-1.556.73.506.506 0 0 1-.673.21.5.5 0 0 1-.218-.664A2.661 2.661 0 0 1 19.5 15a2.874 2.874 0 0 1 1.777.584 2.006 2.006 0 0 0 2.446 0 3 3 0 0 1 3.554 0A1.894 1.894 0 0 0 28.5 16a1.7 1.7 0 0 0 1.556-.73.507.507 0 0 1 .673-.21.5.5 0 0 1 .218.664A2.661 2.661 0 0 1 28.5 17zM28.5 20a2.874 2.874 0 0 1-1.777-.584 2.006 2.006 0 0 0-2.446 0 3 3 0 0 1-3.554 0A1.894 1.894 0 0 0 19.5 19a1.7 1.7 0 0 0-1.556.73.506.506 0 0 1-.673.21.5.5 0 0 1-.218-.664A2.661 2.661 0 0 1 19.5 18a2.874 2.874 0 0 1 1.777.584 2.006 2.006 0 0 0 2.446 0 3 3 0 0 1 3.554 0A1.894 1.894 0 0 0 28.5 19a1.7 1.7 0 0 0 1.556-.73.506.506 0 0 1 .673-.21.5.5 0 0 1 .218.664A2.661 2.661 0 0 1 28.5 20z"/></svg>