<svg xmlns="http://www.w3.org/2000/svg" viewBox="0 0 32 32" fill="#767676"><path d="M30,10.5V6H8v4.5a1,1,0,0,1,0,2V15H2v4.5a1,1,0,0,1,0,2V26H24V21.5a1,1,0,0,1,0-2V17h6V12.5a1,1,0,0,1,0-2Zm-7,8.268a2,2,0,0,0,0,3.464V25H3V22.232a2,2,0,0,0,0-3.464V16H23v2.768Zm6-9a2,2,0,0,0,0,3.464V16H24V15H14.5V14h-1v1H9V13.232A2,2,0,0,0,9,9.768V7H29ZM14.5,9h-1V8h1Zm0,2h-1V10h1Zm0,2h-1V12h1ZM14,18H11V17h3Zm1-1h6v1H15Zm-4,2h5v1H11Zm6,0h2v1H17ZM23,9H17V8h6Zm2,2H17V10h8Zm2.5-2H24V8h3.5Zm-20,8h1v1h-1Zm0,2h1v1h-1Zm0,2h1v1h-1Zm0,2h1v1h-1Z"/></svg>

